PathFileType	4	(X/Y/Z)	C:\Users\°ÂÌØÂü\Desktop\20201223\Trimmed_bx_n_5_501.trc
DataRate	CameraRate	NumFrames	NumMarkers	Units	OrigDataRate	OrigDataStartFrame	OrigNumFrames
50.00	50.00	      4	43	mm	50.00	181	      1445
Frame#	Time	Top.Head			R.Acromium			L.Acromium			Sternum			R.ASIS			L.ASIS			V.Sacral			R.Thigh.Upper			R.Thigh.Front			R.Thigh.Rear			R.Knee.Lat			R.Knee.Med			R.Shank.Upper			R.Shank.Front			R.Shank.Rear			R.Ankle.Lat			R.Midfoot.Lat			R.Toe.Lat			R.Toe.Tip			R.Toe.Med			R.Ankle.Med			R.Midfoot.Sup			R.Heel			L.Thigh.Upper			L.Thigh.Front			L.Thigh.Rear			L.Knee.Lat			L.Knee.Med			L.Shank.Upper			L.Shank.Front			L.Shank.Rear			L.Ankle.Lat			L.Midfoot.Lat			L.Toe.Lat			L.Toe.Tip			L.Toe.Med			L.Ankle.Med			L.Midfoot.Sup			L.Heel			origin1 front left			origin2 front right			origin 3 back right			origin 4 back leftt			
		X1	Y1	Z1	X2	Y2	Z2	X3	Y3	Z3	X4	Y4	Z4	X5	Y5	Z5	X6	Y6	Z6	X7	Y7	Z7	X8	Y8	Z8	X9	Y9	Z9	X10	Y10	Z10	X11	Y11	Z11	X12	Y12	Z12	X13	Y13	Z13	X14	Y14	Z14	X15	Y15	Z15	X16	Y16	Z16	X17	Y17	Z17	X18	Y18	Z18	X19	Y19	Z19	X20	Y20	Z20	X21	Y21	Z21	X22	Y22	Z22	X23	Y23	Z23	X24	Y24	Z24	X25	Y25	Z25	X26	Y26	Z26	X27	Y27	Z27	X28	Y28	Z28	X29	Y29	Z29	X30	Y30	Z30	X31	Y31	Z31	X32	Y32	Z32	X33	Y33	Z33	X34	Y34	Z34	X35	Y35	Z35	X36	Y36	Z36	X37	Y37	Z37	X38	Y38	Z38	X39	Y39	Z39	X40	Y40	Z40	X41	Y41	Z41	X42	Y42	Z42	X43	Y43	Z43	

181	3.600	-659.77570	260.04089	1836.94189	-633.32898	80.13700	1526.16785	-633.86609	444.22253	1528.88220	-552.73468	262.74417	1349.62183	-571.11206	129.16588	1039.42407	-554.34058	359.49554	1040.98962	-762.40479	251.97546	1058.27246	-646.61377	80.28871	837.99432	-555.04376	134.48259	818.07471	-646.33026	91.33167	727.64185	-678.39307	113.55991	606.23889	-654.25916	219.83238	562.28064	-707.49219	113.21136	538.95270	-628.51331	160.14169	525.09198	-715.17035	105.03242	487.63687	-699.93860	135.87280	212.12863	-624.50238	73.27748	165.18402	-578.30902	50.06379	160.58226	-502.41339	94.42557	159.50546	-543.52032	145.61678	163.53886	-649.54877	211.97737	220.45937	-606.17773	184.49600	170.76427	-733.40796	201.96112	169.09114	-639.77313	436.28580	857.98584	-554.73944	389.65634	818.75287	-660.70721	424.31030	743.57446	-673.25861	406.93744	607.26532	-652.72955	297.64328	570.04224	-688.37952	408.87558	560.41132	-626.54633	357.42178	536.98657	-740.50342	408.12552	494.41803	-684.02997	408.74063	214.92804	-589.16357	463.33575	162.62933	-551.14215	475.25751	157.95171	-488.93362	423.90295	166.45888	-527.42346	385.30740	177.37770	-643.31042	319.85031	209.37712	-594.38495	343.11462	171.14047	-732.17371	335.88290	162.14334	-443.64874	448.70963	146.58047	-450.40399	74.98700	143.07793	-806.18005	82.34596	140.99702	-799.04565	457.19424	144.87862	
182	3.620	-665.39606	259.58832	1836.88232	-636.22107	79.69765	1526.24487	-636.85754	443.96649	1529.09937	-553.67773	262.48941	1350.58179	-569.95636	128.86119	1039.37012	-554.66492	359.95810	1040.66785	-761.33405	251.61223	1058.07996	-645.42816	79.95142	837.88898	-554.01801	134.39484	817.91064	-645.39124	91.08990	727.57446	-677.82489	113.30306	606.23901	-653.97052	219.62601	562.26721	-707.09662	112.99331	538.91998	-628.16077	159.93938	525.02441	-714.86285	104.89143	487.62759	-699.93951	135.84029	212.12686	-624.50775	73.26406	165.21541	-578.31476	50.06863	160.58302	-502.41229	94.43139	159.51204	-543.53149	145.60985	163.55276	-649.48547	211.96500	220.43222	-606.17981	184.49423	170.75946	-733.40552	201.96425	169.06839	-638.72345	436.09601	857.95587	-553.80872	389.35834	818.66486	-659.84705	424.06226	743.54883	-672.59229	406.70166	607.26929	-652.05542	297.40930	570.04053	-687.74884	408.70605	560.44806	-625.97632	357.24057	536.93793	-739.99915	407.90518	494.52194	-683.93140	408.65036	214.95349	-589.15802	463.31934	162.66425	-551.14343	475.22974	157.95737	-488.92389	423.93134	166.47780	-527.42975	385.29114	177.36176	-643.16174	319.71112	209.39952	-594.34229	343.08267	171.08257	-732.21619	335.88254	162.18279	-443.65912	448.75076	146.64844	-450.40295	74.98544	143.07767	-806.18365	82.34230	140.99922	-799.02710	457.20786	144.87367	
183	3.640	-670.47345	259.12717	1836.79443	-638.84430	79.23508	1526.29858	-639.58270	443.67056	1529.27588	-554.52258	262.19894	1351.45923	-568.94360	128.56543	1039.28723	-555.21405	360.46133	1040.31714	-760.41223	251.25313	1057.92725	-644.44342	79.62389	837.78479	-553.16467	134.27908	817.74805	-644.62451	90.84450	727.51440	-677.37061	113.05516	606.23737	-653.75195	219.42924	562.25330	-706.78253	112.78696	538.89032	-627.88208	159.73616	524.97205	-714.62469	104.75670	487.60309	-699.94775	135.80185	212.12479	-624.52106	73.25031	165.23430	-578.32074	50.07058	160.58374	-502.41003	94.43721	159.52037	-543.54431	145.60335	163.56532	-649.43866	211.94862	220.41069	-606.18445	184.48946	170.75928	-733.40936	201.96455	169.05095	-637.83923	435.88870	857.91766	-553.02374	389.06787	818.57330	-659.11865	423.82275	743.51947	-672.01813	406.46829	607.26379	-651.47784	297.18472	570.03088	-687.20270	408.54651	560.47461	-625.48737	357.07111	536.89587	-739.56226	407.70508	494.61496	-683.84454	408.56161	214.97659	-589.15533	463.30582	162.69298	-551.14569	475.20242	157.96069	-488.91736	423.95633	166.49486	-527.43329	385.27383	177.34602	-643.03247	319.58517	209.42760	-594.30035	343.05014	171.03539	-732.27087	335.89114	162.22917	-443.67682	448.78693	146.71086	-450.40308	74.98260	143.07747	-806.18848	82.33526	141.00121	-799.00977	457.22021	144.86707	
184	3.660	-675.03589	258.65091	1836.69446	-641.22656	78.74738	1526.33704	-642.05646	443.33301	1529.42493	-555.27399	261.86963	1352.26660	-568.05597	128.28239	1039.17932	-555.92273	360.98410	1039.95276	-759.62219	250.90424	1057.81165	-643.64111	79.31092	837.68188	-552.46478	134.13686	817.58813	-644.01300	90.59961	727.46149	-677.01624	112.81921	606.23376	-653.58722	219.24483	562.24152	-706.53937	112.59697	538.86627	-627.66663	159.53671	524.93488	-714.44696	104.63376	487.56567	-699.96075	135.76053	212.12190	-624.54083	73.23596	165.24181	-578.32703	50.07053	160.58389	-502.40686	94.44281	159.53021	-543.55786	145.59787	163.57591	-649.40601	211.93076	220.39514	-606.19043	184.48280	170.76135	-733.41827	201.96303	169.03793	-637.09778	435.66571	857.87079	-552.36285	388.78586	818.47852	-658.50409	423.59280	743.48877	-671.52380	406.24005	607.25165	-650.98541	296.97366	570.01068	-686.73328	408.39520	560.49176	-625.07013	356.91330	536.85931	-739.18280	407.52686	494.70154	-683.76923	408.47601	214.99763	-589.15454	463.29413	162.71605	-551.14856	475.17548	157.96378	-488.91339	423.97589	166.50862	-527.43390	385.25598	177.33093	-642.92566	319.47623	209.45422	-594.25995	343.01709	170.99985	-732.33398	335.90594	162.27896	-443.69934	448.81552	146.76408	-450.40457	74.97919	143.07756	-806.19379	82.32603	141.00235	-798.99176	457.23242	144.85959	
